<?xml version="1.0" encoding="UTF-8"?>
<svg id="Layer_2" data-name="Layer 2" xmlns="http://www.w3.org/2000/svg" viewBox="0 0 71.55 70.06">
  <defs>
    <style>
      .cls-1 {
        fill: #fff;
      }
    </style>
  </defs>
  <g id="Layer_1-2" data-name="Layer 1">
    <g id="_231_Architect_Presentation_Property_Presentation_Real_Estate" data-name="231, Architect, Presentation, Property Presentation, Real Estate">
      <g>
        <path class="cls-1" d="M59.62,57.51c3.97,0,7.2-3.23,7.2-7.2v-30.06c2.61,0,4.72-2.11,4.72-4.72s-2.11-4.72-4.72-4.72h-24.84c0-3.48-2.73-6.21-6.21-6.21s-6.21,2.73-6.21,6.21H4.72c-2.61,0-4.72,2.11-4.72,4.72s2.11,4.72,4.72,4.72v30.06c0,3.97,3.23,7.2,7.2,7.2h2.11v1.74c0,2.48,1.99,4.47,4.47,4.47h15.78v4.72c0,.87.75,1.61,1.61,1.61s1.61-.75,1.61-1.61v-4.72h15.78c2.48,0,4.47-1.99,4.47-4.47v-1.74h1.86ZM35.77,7.83c1.74,0,3.11,1.37,3.11,3.11h-6.21c0-1.74,1.37-3.11,3.1-3.11ZM3.23,15.53c0-.87.75-1.61,1.61-1.61h62.11c.87,0,1.62.75,1.62,1.61s-.75,1.62-1.62,1.62H4.84c-.99,0-1.61-.75-1.61-1.62ZM7.83,50.18v-29.94h55.9v30.06c0,2.24-1.86,4.1-4.1,4.1H11.92c-2.24,0-4.1-1.86-4.1-4.22ZM54.41,59.25c0,.75-.62,1.37-1.37,1.37H18.51c-.75,0-1.37-.62-1.37-1.37v-1.74h37.26v1.74Z"/>
        <path class="cls-1" d="M37.39,32.54c.89,0,1.61.72,1.61,1.61s-.72,1.62-1.61,1.62-1.62-.72-1.62-1.62.72-1.61,1.62-1.61Z"/>
        <path class="cls-1" d="M20.25,51.3h37.26c.87,0,1.61-.75,1.61-1.61v-24.84c0-.87-.75-1.61-1.61-1.61H20.25c-.87,0-1.61.75-1.61,1.61v24.84c.12.87.75,1.61,1.61,1.61ZM45.09,26.46v6.21h-3.11c-.87,0-1.61.75-1.61,1.61s.75,1.61,1.61,1.61h4.72c.87,0,1.61-.75,1.61-1.61v-7.83h7.83v10.93h-3.11v-4.72c0-.87-.75-1.62-1.61-1.62s-1.61.75-1.61,1.62v6.21c0,.87.75,1.62,1.61,1.62h4.72v7.83h-1.74v-3.11c0-.87-.75-1.61-1.61-1.61s-1.61.75-1.61,1.61v3.11h-7.83v-4.72h1.61c.87,0,1.61-.75,1.61-1.62s-.62-1.61-1.49-1.61h-3.11c-.87,0-1.61.75-1.61,1.61v6.21h-3.11v-9.32c0-.87-.75-1.61-1.61-1.61h-7.83c-.87,0-1.62.75-1.62,1.61s.75,1.62,1.62,1.62h6.21v7.83h-7.83v-1.74h1.62c.87,0,1.61-.75,1.61-1.62s-.75-1.61-1.61-1.61h-3.11c-.87,0-1.62.75-1.62,1.61v3.11h-1.61v-12.42h10.93c.87,0,1.61-.75,1.61-1.61s-.75-1.62-1.61-1.62h-10.93v-6.21h23.6v.25Z"/>
        <path class="cls-1" d="M14.04,32.67h-3.11c-.87,0-1.61.75-1.61,1.61s.75,1.61,1.61,1.61h3.11c.87,0,1.62-.75,1.62-1.61,0-.99-.75-1.61-1.62-1.61Z"/>
        <path class="cls-1" d="M10.93,31.05h3.11c.87,0,1.62-.75,1.62-1.61s-.75-1.61-1.62-1.61h-3.11c-.87,0-1.61.75-1.61,1.61.12.87.75,1.61,1.61,1.61Z"/>
        <path class="cls-1" d="M10.93,26.46h3.11c.87,0,1.62-.75,1.62-1.61s-.75-1.61-1.62-1.61h-3.11c-.87,0-1.61.75-1.61,1.61.12.87.75,1.61,1.61,1.61Z"/>
        <rect class="cls-1" x="56.02" width="6.21" height="3.11"/>
        <rect class="cls-1" x="63.72" width="3.11" height="3.11"/>
        <rect class="cls-1" x=".12" y="62.11" width="6.21" height="3.11"/>
        <rect class="cls-1" x="7.83" y="62.11" width="3.1" height="3.11"/>
        <path class="cls-1" d="M16.4,7.83c2.11,0,3.85-1.74,3.85-3.85S18.51.12,16.4.12s-3.85,1.74-3.85,3.85,1.74,3.85,3.85,3.85ZM16.4,3.11c.37,0,.75.37.75.75s-.37.75-.75.75-.75-.37-.75-.75.25-.75.75-.75Z"/>
        <path class="cls-1" d="M63.72,60.62c-2.61,0-4.72,2.11-4.72,4.72s2.11,4.72,4.72,4.72,4.72-2.11,4.72-4.72-2.11-4.72-4.72-4.72ZM63.72,66.83c-.87,0-1.61-.75-1.61-1.61s.75-1.61,1.61-1.61,1.61.75,1.61,1.61-.75,1.61-1.61,1.61Z"/>
        <path class="cls-1" d="M48.2,1.49c.89,0,1.61.72,1.61,1.61s-.72,1.61-1.61,1.61-1.62-.72-1.62-1.61.72-1.61,1.62-1.61Z"/>
        <path class="cls-1" d="M69.93,54.28c.89,0,1.61.72,1.61,1.61s-.72,1.62-1.61,1.62-1.62-.72-1.62-1.62.72-1.61,1.62-1.61Z"/>
        <path class="cls-1" d="M49.81,66.7c.89,0,1.61.72,1.61,1.61s-.72,1.61-1.61,1.61-1.61-.72-1.61-1.61.72-1.61,1.61-1.61Z"/>
        <path class="cls-1" d="M18.76,65.21c.89,0,1.61.72,1.61,1.61s-.72,1.62-1.61,1.62-1.62-.72-1.62-1.62.72-1.61,1.62-1.61Z"/>
        <path class="cls-1" d="M1.61,52.79c.89,0,1.61.72,1.61,1.62s-.72,1.61-1.61,1.61-1.61-.72-1.61-1.61.72-1.62,1.61-1.62Z"/>
        <path class="cls-1" d="M7.83,4.6c.89,0,1.61.72,1.61,1.62s-.72,1.61-1.61,1.61-1.62-.72-1.62-1.61.72-1.62,1.62-1.62Z"/>
      </g>
    </g>
  </g>
</svg>